<svg width="146" height="99" viewBox="0 0 146 99" fill="none" xmlns="http://www.w3.org/2000/svg" role="img" aria-label="HTML Editor logo">
<path d="M0.625 20.0366C0.625 19.4878 1.06729 19.0415 1.61606 19.0366L115.195 18.0217C116.088 18.0137 116.543 19.0916 115.914 19.7258L72.6506 63.3543C72.5699 63.4357 72.5038 63.5303 72.4552 63.6341L61.7749 86.4243C61.6102 86.7756 61.2573 87 60.8694 87H1.625C1.07272 87 0.625 86.5523 0.625 86V20.0366Z" fill="#E7E8EA"/>
<path d="M76.7869 68.8496C77.0658 68.1836 77.9371 68.0237 78.4343 68.5472L91.338 82.132C91.8844 82.7073 91.5753 83.6594 90.7951 83.8039L80.5421 85.7034L70.3485 88.3855C69.547 88.5964 68.8515 87.7966 69.1717 87.0321L76.7869 68.8496Z" fill="#E7E8EA"/>
<path d="M71.5644 81.3909C71.806 80.8195 72.5043 80.6037 73.0262 80.9392L78.617 84.5333C79.3511 85.0052 79.1708 86.1253 78.3256 86.3429L70.3465 88.3971C69.5447 88.6035 68.8537 87.8018 69.1761 87.0392L71.5644 81.3909Z" fill="#FF5A1F"/>
<rect x="131.832" y="13.6417" width="18.7511" height="11.0703" rx="4" transform="rotate(43.8526 131.832 13.6417)" fill="#FF5A1F"/>
<rect x="123.897" y="19.8371" width="21.292" height="5.8997" rx="2" transform="rotate(43.8526 123.897 19.8371)" fill="#E7E8EA"/>
<path d="M0 1C0 0.447715 0.447715 0 1 0H124C124.552 0 125 0.447715 125 1V7.64989C125 7.87655 124.923 8.09649 124.782 8.27365L115.724 19.6238C115.534 19.8615 115.246 20 114.942 20H1C0.447717 20 0 19.5523 0 19V1Z" fill="#313230"/>
<rect y="84" width="63" height="5" rx="1" fill="#313230"/>
<rect x="119.777" y="24.0613" width="21.292" height="62.9866" rx="1" transform="rotate(43.8526 119.777 24.0613)" fill="#313230"/>
<path d="M97.3082 89C96.4328 89 95.9799 87.9547 96.5787 87.3161L123.27 58.8448C123.89 58.1835 125 58.6222 125 59.5288V88C125 88.5523 124.552 89 124 89H97.3082Z" fill="#313230"/>
<path d="M100.152 83.5L123.271 58.8445C123.891 58.1832 125 58.622 125 59.5285V83.5H100.152Z" fill="#E7E8EA"/>
<circle cx="11.5" cy="10.5" r="4.5" fill="#FF5A1F"/>
<circle cx="24.5" cy="10.5" r="4.5" fill="#E7E8EA"/>
<circle cx="37.5" cy="10.5" r="4.5" fill="#E7E8EA"/>
</svg>
